<?xml version="1.0" encoding="UTF-8" standalone="no"?>
<!DOCTYPE svg PUBLIC "-//W3C//DTD SVG 1.1//EN"
 "http://www.w3.org/Graphics/SVG/1.1/DTD/svg11.dtd">
<!-- Generated by graphviz version 2.40.1 (20161225.0304)
 -->
<!-- Title: dependencies Pages: 1 -->
<svg width="504pt" height="284pt"
 viewBox="0.00 0.00 504.00 284.00" xmlns="http://www.w3.org/2000/svg" xmlns:xlink="http://www.w3.org/1999/xlink">
<g id="graph0" class="graph" transform="scale(1 1) rotate(0) translate(4 280)">
<title>dependencies</title>
<polygon fill="#ffffff" stroke="transparent" points="-4,4 -4,-280 500,-280 500,4 -4,4"/>
<text text-anchor="start" x="227.0091" y="-42.4" font-family="sans-serif" font-weight="bold" font-size="14.00" fill="#000000">Legend</text>
<polygon fill="#ffffb3" stroke="transparent" points="14,-10 14,-30 34,-30 34,-10 14,-10"/>
<text text-anchor="start" x="37.629" y="-15.4" font-family="sans-serif" font-size="14.00" fill="#000000"> &#160;Declarations</text>
<polygon fill="#8dd3c7" stroke="transparent" points="127,-10 127,-30 147,-30 147,-10 127,-10"/>
<text text-anchor="start" x="150.7251" y="-15.4" font-family="sans-serif" font-size="14.00" fill="#000000"> &#160;Module</text>
<polygon fill="#80b1d3" stroke="transparent" points="213,-10 213,-30 233,-30 233,-10 213,-10"/>
<text text-anchor="start" x="236.7812" y="-15.4" font-family="sans-serif" font-size="14.00" fill="#000000"> &#160;Bootstrap</text>
<polygon fill="#fdb462" stroke="transparent" points="310,-10 310,-30 330,-30 330,-10 310,-10"/>
<text text-anchor="start" x="333.6732" y="-15.4" font-family="sans-serif" font-size="14.00" fill="#000000"> &#160;Providers</text>
<polygon fill="#fb8072" stroke="transparent" points="406,-10 406,-30 426,-30 426,-10 406,-10"/>
<text text-anchor="start" x="429.7258" y="-15.4" font-family="sans-serif" font-size="14.00" fill="#000000"> &#160;Exports</text>
<g id="clust1" class="cluster">
<title>cluster_NgxMaterialFaqModule</title>
<polygon fill="none" stroke="#000000" stroke-dasharray="1,5" points="26,-70 26,-268 470,-268 470,-70 26,-70"/>
</g>
<g id="clust2" class="cluster">
<title>cluster_NgxMaterialFaqModule_declarations</title>
<polygon fill="none" stroke="#000000" points="38,-78 38,-130 458,-130 458,-78 38,-78"/>
</g>
<g id="clust6" class="cluster">
<title>cluster_NgxMaterialFaqModule_exports</title>
<polygon fill="none" stroke="#000000" points="34,-208 34,-260 462,-260 462,-208 34,-208"/>
</g>
<!-- NgxMaterialFaqAdminComponent -->
<g id="node1" class="node">
<title>NgxMaterialFaqAdminComponent</title>
<polygon fill="#ffffb3" stroke="#000000" points="450.245,-122 237.755,-122 237.755,-86 450.245,-86 450.245,-122"/>
<text text-anchor="middle" x="344" y="-99.8" font-family="Times,serif" font-size="14.00" fill="#000000">NgxMaterialFaqAdminComponent</text>
</g>
<!-- NgxMaterialFaqModule -->
<g id="node3" class="node">
<title>NgxMaterialFaqModule</title>
<polygon fill="#8dd3c7" stroke="#000000" points="210.0744,-187 207.0744,-191 186.0744,-191 183.0744,-187 57.9256,-187 57.9256,-151 210.0744,-151 210.0744,-187"/>
<text text-anchor="middle" x="134" y="-164.8" font-family="Times,serif" font-size="14.00" fill="#000000">NgxMaterialFaqModule</text>
</g>
<!-- NgxMaterialFaqAdminComponent&#45;&gt;NgxMaterialFaqModule -->
<g id="edge1" class="edge">
<title>NgxMaterialFaqAdminComponent&#45;&gt;NgxMaterialFaqModule</title>
<path fill="none" stroke="#000000" d="M379.5408,-122.0225C379.5408,-139.3734 379.5408,-163 379.5408,-163 379.5408,-163 220.3447,-163 220.3447,-163"/>
<polygon fill="#000000" stroke="#000000" points="220.3447,-159.5001 210.3447,-163 220.3447,-166.5001 220.3447,-159.5001"/>
</g>
<!-- NgxMaterialFaqComponent -->
<g id="node2" class="node">
<title>NgxMaterialFaqComponent</title>
<polygon fill="#ffffb3" stroke="#000000" points="219.8571,-122 46.1429,-122 46.1429,-86 219.8571,-86 219.8571,-122"/>
<text text-anchor="middle" x="133" y="-99.8" font-family="Times,serif" font-size="14.00" fill="#000000">NgxMaterialFaqComponent</text>
</g>
<!-- NgxMaterialFaqComponent&#45;&gt;NgxMaterialFaqModule -->
<g id="edge2" class="edge">
<title>NgxMaterialFaqComponent&#45;&gt;NgxMaterialFaqModule</title>
<path fill="none" stroke="#000000" d="M134,-122.1061C134,-122.1061 134,-140.991 134,-140.991"/>
<polygon fill="#000000" stroke="#000000" points="130.5001,-140.9909 134,-150.991 137.5001,-140.991 130.5001,-140.9909"/>
</g>
<!-- NgxMaterialFaqAdminComponent  -->
<g id="node4" class="node">
<title>NgxMaterialFaqAdminComponent </title>
<polygon fill="#fb8072" stroke="#000000" points="454.2449,-252 237.7551,-252 237.7551,-216 454.2449,-216 454.2449,-252"/>
<text text-anchor="middle" x="346" y="-229.8" font-family="Times,serif" font-size="14.00" fill="#000000">NgxMaterialFaqAdminComponent </text>
</g>
<!-- NgxMaterialFaqModule&#45;&gt;NgxMaterialFaqAdminComponent  -->
<g id="edge3" class="edge">
<title>NgxMaterialFaqModule&#45;&gt;NgxMaterialFaqAdminComponent </title>
<path fill="none" stroke="#000000" stroke-dasharray="5,2" d="M210.1218,-175C257.2023,-175 308.7092,-175 308.7092,-175 308.7092,-175 308.7092,-205.9775 308.7092,-205.9775"/>
<polygon fill="#000000" stroke="#000000" points="305.2093,-205.9774 308.7092,-215.9775 312.2093,-205.9775 305.2093,-205.9774"/>
</g>
<!-- NgxMaterialFaqComponent  -->
<g id="node5" class="node">
<title>NgxMaterialFaqComponent </title>
<polygon fill="#fb8072" stroke="#000000" points="219.8574,-252 42.1426,-252 42.1426,-216 219.8574,-216 219.8574,-252"/>
<text text-anchor="middle" x="131" y="-229.8" font-family="Times,serif" font-size="14.00" fill="#000000">NgxMaterialFaqComponent </text>
</g>
<!-- NgxMaterialFaqModule&#45;&gt;NgxMaterialFaqComponent  -->
<g id="edge4" class="edge">
<title>NgxMaterialFaqModule&#45;&gt;NgxMaterialFaqComponent </title>
<path fill="none" stroke="#000000" stroke-dasharray="5,2" d="M134,-187.1061C134,-187.1061 134,-205.991 134,-205.991"/>
<polygon fill="#000000" stroke="#000000" points="130.5001,-205.9909 134,-215.991 137.5001,-205.991 130.5001,-205.9909"/>
</g>
</g>
</svg>
